<?xml version="1.0" standalone="no"?>
<!DOCTYPE svg PUBLIC "-//W3C//DTD SVG 20010904//EN"
 "http://www.w3.org/TR/2001/REC-SVG-20010904/DTD/svg10.dtd">
<svg version="1.0" xmlns="http://www.w3.org/2000/svg"
 width="4668.000000pt" height="4668.000000pt" viewBox="0 0 4668.000000 4668.000000"
 preserveAspectRatio="xMidYMid meet">
<metadata>
Created by potrace 1.11, written by Peter Selinger 2001-2013
</metadata>
<g transform="translate(0.000000,4668.000000) scale(0.100000,-0.100000)"
fill="#000000" stroke="none">
<path d="M44587 46670 c-71 -5 -285 -23 -475 -39 -471 -41 -618 -51 -812 -51
-128 0 -325 -16 -880 -70 -1512 -147 -2873 -285 -5800 -590 -2863 -298 -3903
-404 -5175 -530 -635 -62 -2190 -211 -2370 -226 -38 -3 -95 -12 -125 -20 -147
-36 -358 -61 -745 -89 -622 -44 -897 -111 -1149 -279 -84 -56 -214 -178 -261
-246 l-27 -39 -9 -303 c-32 -995 64 -2138 267 -3169 121 -617 143 -680 284
-820 75 -76 101 -94 201 -143 192 -94 366 -133 634 -143 142 -4 205 0 555 36
607 64 1464 160 2460 276 2843 332 3953 442 5330 530 444 28 453 28 448 16 -4
-12 -390 -447 -673 -760 -1086 -1200 -2293 -2443 -4350 -4481 -1117 -1106
-2700 -2689 -3177 -3175 l-206 -210 -178 128 c-983 706 -2097 1336 -3234 1827
-1884 814 -3920 1307 -5970 1444 -565 38 -1419 50 -1935 26 -1570 -71 -2926
-305 -4420 -765 -132 -40 -339 -103 -460 -139 -282 -84 -663 -212 -981 -331
-2586 -970 -4973 -2662 -6871 -4873 -2505 -2916 -4018 -6512 -4287 -10187 -40
-540 -52 -1395 -27 -1850 6 -110 15 -319 21 -465 24 -658 60 -1109 131 -1660
567 -4406 2937 -8591 6464 -11416 996 -798 2217 -1574 3313 -2106 2422 -1175
5072 -1777 7827 -1778 3183 -1 6230 804 8875 2343 256 150 929 568 1190 742
600 397 1169 832 1720 1314 534 467 1121 1054 1589 1586 2560 2917 4139 6659
4425 10485 35 465 41 638 41 1255 0 737 -14 1023 -81 1705 -164 1660 -534
3216 -1141 4799 -549 1433 -1334 2908 -2229 4187 l-116 166 2554 2557 c2679
2682 3370 3380 4554 4606 322 335 1027 1071 1244 1302 74 78 135 141 136 140
6 -7 -53 -980 -91 -1497 -59 -797 -115 -1427 -290 -3265 -172 -1810 -225
-2422 -301 -3460 -13 -192 -31 -384 -39 -425 -20 -105 -20 -343 0 -449 83
-432 352 -763 718 -886 111 -37 848 -154 1412 -225 684 -85 1330 -126 1845
-118 232 4 275 8 345 27 271 73 471 247 616 533 145 287 218 633 264 1253 119
1583 354 4306 785 9065 297 3279 387 4286 510 5720 46 541 50 613 54 960 2
206 7 508 11 671 10 390 -6 573 -71 797 -72 249 -236 469 -439 592 -113 67
-387 143 -635 176 -148 19 -600 27 -793 14z m-25702 -16251 c1447 -64 2632
-324 3725 -817 85 -39 214 -94 285 -122 514 -208 1116 -511 1635 -823 239
-144 666 -429 895 -597 1223 -899 2272 -2003 3120 -3285 1194 -1806 1913
-3875 2064 -5945 32 -425 42 -1370 21 -1801 -142 -2846 -1329 -5631 -3360
-7884 -204 -227 -625 -650 -805 -809 -1675 -1485 -3788 -2529 -6056 -2991
-2007 -409 -4035 -340 -5912 201 -407 117 -1017 334 -1445 514 -964 404 -1884
932 -2727 1564 -1633 1224 -2974 2849 -3803 4611 -410 870 -659 1534 -861
2300 -361 1363 -486 2831 -365 4285 209 2525 1149 4935 2659 6825 645 808
1294 1468 2010 2044 870 702 1856 1297 2880 1738 1207 521 2545 865 3660 943
942 65 1674 81 2380 49z"/>
</g>
</svg>
